<svg width="24" height="24" viewBox="0 0 24 24" fill="none" xmlns="http://www.w3.org/2000/svg">
<path d="M21.633 3.978C21.646 4.153 21.646 4.327 21.646 4.501C21.646 9.826 17.593 15.962 10.186 15.962C7.904 15.962 5.784 15.301 4 14.153C4.324 14.19 4.636 14.203 4.973 14.203C6.78599 14.2074 8.54765 13.6011 9.974 12.482C9.13342 12.4668 8.31858 12.1895 7.64324 11.6887C6.9679 11.188 6.46578 10.4889 6.207 9.689C6.456 9.726 6.706 9.751 6.968 9.751C7.329 9.751 7.692 9.701 8.029 9.614C7.11676 9.42981 6.29647 8.93535 5.70762 8.21469C5.11876 7.49402 4.79769 6.59165 4.799 5.661V5.611C5.336 5.91 5.959 6.097 6.619 6.122C6.06609 5.75459 5.61272 5.25602 5.29934 4.67079C4.98596 4.08556 4.82231 3.43186 4.823 2.768C4.823 2.02 5.022 1.334 5.371 0.736001C6.38314 1.98102 7.6455 2.99956 9.07634 3.72566C10.5072 4.45176 12.0746 4.86922 13.677 4.951C13.615 4.651 13.577 4.34 13.577 4.028C13.5767 3.49896 13.6807 2.97506 13.8831 2.48624C14.0854 1.99742 14.3821 1.55327 14.7562 1.17919C15.1303 0.805102 15.5744 0.508411 16.0632 0.306078C16.5521 0.103746 17.076 -0.000262379 17.605 4.97063e-07C18.765 4.97063e-07 19.812 0.486 20.548 1.272C21.4498 1.09762 22.3145 0.768422 23.104 0.299C22.8034 1.22982 22.1738 2.0191 21.333 2.519C22.1328 2.42778 22.9144 2.21745 23.652 1.895C23.1011 2.6981 22.4185 3.40235 21.633 3.978V3.978Z" fill="white"/>
</svg>
